# Blender v3.1.2 OBJ File: ''
# www.blender.org
mtllib ret.mtl
o 立方体.001
v -2.644144 -1.725507 0.185929
v -2.644144 1.725507 0.185929
v -2.644144 -1.725507 -0.185929
v -2.644144 1.725507 -0.185929
v -2.045275 -1.725507 0.185929
v -2.045275 1.725507 0.185929
v -2.045275 -1.725507 -0.185929
v -2.045275 1.725507 -0.185929
vt 0.625000 0.000000
vt 0.375000 0.250000
vt 0.375000 0.000000
vt 0.625000 0.250000
vt 0.375000 0.500000
vt 0.625000 0.500000
vt 0.375000 0.750000
vt 0.625000 0.750000
vt 0.375000 1.000000
vt 0.125000 0.750000
vt 0.125000 0.500000
vt 0.875000 0.500000
vt 0.625000 1.000000
vt 0.875000 0.750000
vn -1.0000 0.0000 0.0000
vn 0.0000 0.0000 -1.0000
vn 1.0000 0.0000 0.0000
vn 0.0000 0.0000 1.0000
vn 0.0000 -1.0000 0.0000
vn 0.0000 1.0000 0.0000
usemtl None
s off
f 2/1/1 3/2/1 1/3/1
f 4/4/2 7/5/2 3/2/2
f 8/6/3 5/7/3 7/5/3
f 6/8/4 1/9/4 5/7/4
f 7/5/5 1/10/5 3/11/5
f 4/12/6 6/8/6 8/6/6
f 2/1/1 4/4/1 3/2/1
f 4/4/2 8/6/2 7/5/2
f 8/6/3 6/8/3 5/7/3
f 6/8/4 2/13/4 1/9/4
f 7/5/5 5/7/5 1/10/5
f 4/12/6 2/14/6 6/8/6
o 立方体.002_立方体.003
v -2.649988 1.742808 0.222016
v -1.430297 2.965232 0.222016
v -2.649988 1.742808 -0.149842
v -1.430297 2.965232 -0.149842
v -2.226051 1.319818 0.222016
v -1.006359 2.542241 0.222016
v -2.226051 1.319818 -0.149842
v -1.006359 2.542241 -0.149842
vt 0.625000 0.000000
vt 0.375000 0.250000
vt 0.375000 0.000000
vt 0.625000 0.250000
vt 0.375000 0.500000
vt 0.625000 0.500000
vt 0.375000 0.750000
vt 0.625000 0.750000
vt 0.375000 1.000000
vt 0.125000 0.750000
vt 0.125000 0.500000
vt 0.875000 0.500000
vt 0.625000 1.000000
vt 0.875000 0.750000
vn -0.7079 0.7063 0.0000
vn 0.0000 0.0000 -1.0000
vn 0.7079 -0.7063 0.0000
vn 0.0000 0.0000 1.0000
vn -0.7063 -0.7079 0.0000
vn 0.7063 0.7079 0.0000
usemtl None
s off
f 10/15/7 11/16/7 9/17/7
f 12/18/8 15/19/8 11/16/8
f 16/20/9 13/21/9 15/19/9
f 14/22/10 9/23/10 13/21/10
f 15/19/11 9/24/11 11/25/11
f 12/26/12 14/22/12 16/20/12
f 10/15/7 12/18/7 11/16/7
f 12/18/8 16/20/8 15/19/8
f 16/20/9 14/22/9 13/21/9
f 14/22/10 10/27/10 9/23/10
f 15/19/11 13/21/11 9/24/11
f 12/26/12 10/28/12 14/22/12
o 立方体.003_立方体.004
v 2.583832 1.742808 -0.209011
v 1.364140 2.965232 -0.209011
v 2.583832 1.742808 0.162847
v 1.364140 2.965232 0.162847
v 2.159894 1.319818 -0.209011
v 0.940203 2.542241 -0.209011
v 2.159894 1.319818 0.162847
v 0.940203 2.542241 0.162847
vt 0.625000 0.000000
vt 0.375000 0.250000
vt 0.375000 0.000000
vt 0.625000 0.250000
vt 0.375000 0.500000
vt 0.625000 0.500000
vt 0.375000 0.750000
vt 0.625000 0.750000
vt 0.375000 1.000000
vt 0.125000 0.750000
vt 0.125000 0.500000
vt 0.875000 0.500000
vt 0.625000 1.000000
vt 0.875000 0.750000
vn 0.7079 0.7063 0.0000
vn 0.0000 -0.0000 1.0000
vn -0.7079 -0.7063 0.0000
vn -0.0000 0.0000 -1.0000
vn 0.7063 -0.7079 0.0000
vn -0.7063 0.7079 0.0000
usemtl None
s off
f 18/29/13 19/30/13 17/31/13
f 20/32/14 23/33/14 19/30/14
f 24/34/15 21/35/15 23/33/15
f 22/36/16 17/37/16 21/35/16
f 23/33/17 17/38/17 19/39/17
f 20/40/18 22/36/18 24/34/18
f 18/29/13 20/32/13 19/30/13
f 20/32/14 24/34/14 23/33/14
f 24/34/15 22/36/15 21/35/15
f 22/36/16 18/41/16 17/37/16
f 23/33/17 21/35/17 17/38/17
f 20/40/18 18/42/18 22/36/18
o 立方体.004_立方体.005
v 2.577452 -1.725507 -0.245788
v 2.577452 1.725507 -0.245788
v 2.577452 -1.725507 0.126070
v 2.577452 1.725507 0.126070
v 1.978583 -1.725507 -0.245788
v 1.978583 1.725507 -0.245788
v 1.978583 -1.725507 0.126070
v 1.978583 1.725507 0.126070
vt 0.625000 0.000000
vt 0.375000 0.250000
vt 0.375000 0.000000
vt 0.625000 0.250000
vt 0.375000 0.500000
vt 0.625000 0.500000
vt 0.375000 0.750000
vt 0.625000 0.750000
vt 0.375000 1.000000
vt 0.125000 0.750000
vt 0.125000 0.500000
vt 0.875000 0.500000
vt 0.625000 1.000000
vt 0.875000 0.750000
vn 1.0000 0.0000 0.0000
vn 0.0000 0.0000 1.0000
vn -1.0000 0.0000 0.0000
vn -0.0000 0.0000 -1.0000
vn 0.0000 -1.0000 0.0000
vn 0.0000 1.0000 0.0000
usemtl None
s off
f 26/43/19 27/44/19 25/45/19
f 28/46/20 31/47/20 27/44/20
f 32/48/21 29/49/21 31/47/21
f 30/50/22 25/51/22 29/49/22
f 31/47/23 25/52/23 27/53/23
f 28/54/24 30/50/24 32/48/24
f 26/43/19 28/46/19 27/44/19
f 28/46/20 32/48/20 31/47/20
f 32/48/21 30/50/21 29/49/21
f 30/50/22 26/55/22 25/51/22
f 31/47/23 29/49/23 25/52/23
f 28/54/24 26/56/24 30/50/24
o 立方体.005_立方体.006
v -2.649988 -1.551910 -0.168820
v -1.430297 -2.773235 -0.220633
v -2.649988 -1.567672 0.202704
v -1.430297 -2.788997 0.150891
v -2.226051 -1.129300 -0.150891
v -1.006359 -2.350625 -0.202704
v -2.226051 -1.145062 0.220633
v -1.006359 -2.366387 0.168820
vt 0.625000 0.000000
vt 0.375000 0.250000
vt 0.375000 0.000000
vt 0.625000 0.250000
vt 0.375000 0.500000
vt 0.625000 0.500000
vt 0.375000 0.750000
vt 0.625000 0.750000
vt 0.375000 1.000000
vt 0.125000 0.750000
vt 0.125000 0.500000
vt 0.875000 0.500000
vt 0.625000 1.000000
vt 0.875000 0.750000
vn -0.7079 -0.7057 -0.0299
vn -0.0000 -0.0424 0.9991
vn 0.7079 0.7057 0.0299
vn 0.0000 0.0424 -0.9991
vn -0.7063 0.7073 0.0300
vn 0.7063 -0.7073 -0.0300
usemtl None
s off
f 34/57/25 35/58/25 33/59/25
f 36/60/26 39/61/26 35/58/26
f 40/62/27 37/63/27 39/61/27
f 38/64/28 33/65/28 37/63/28
f 39/61/29 33/66/29 35/67/29
f 36/68/30 38/64/30 40/62/30
f 34/57/25 36/60/25 35/58/25
f 36/60/26 40/62/26 39/61/26
f 40/62/27 38/64/27 37/63/27
f 38/64/28 34/69/28 33/65/28
f 39/61/29 37/63/29 33/66/29
f 36/68/30 34/70/30 38/64/30
o 立方体.006_立方体.007
v 2.574574 -1.551910 0.198445
v 1.353806 -2.773235 0.206093
v 2.588017 -1.567672 -0.172836
v 1.367249 -2.788997 -0.165188
v 2.151563 -1.129300 0.165188
v 0.930795 -2.350625 0.172836
v 2.165006 -1.145062 -0.206093
v 0.944238 -2.366387 -0.198445
vt 0.625000 0.000000
vt 0.375000 0.250000
vt 0.375000 0.000000
vt 0.625000 0.250000
vt 0.375000 0.500000
vt 0.625000 0.500000
vt 0.375000 0.750000
vt 0.625000 0.750000
vt 0.375000 1.000000
vt 0.125000 0.750000
vt 0.125000 0.500000
vt 0.875000 0.500000
vt 0.625000 1.000000
vt 0.875000 0.750000
vn 0.7064 -0.7057 0.0555
vn 0.0362 -0.0424 -0.9984
vn -0.7064 0.7057 -0.0555
vn -0.0362 0.0424 0.9984
vn 0.7069 0.7073 -0.0044
vn -0.7069 -0.7073 0.0044
usemtl None
s off
f 42/71/31 43/72/31 41/73/31
f 44/74/32 47/75/32 43/72/32
f 48/76/33 45/77/33 47/75/33
f 46/78/34 41/79/34 45/77/34
f 47/75/35 41/80/35 43/81/35
f 44/82/36 46/78/36 48/76/36
f 42/71/31 44/74/31 43/72/31
f 44/74/32 48/76/32 47/75/32
f 48/76/33 46/78/33 45/77/33
f 46/78/34 42/83/34 41/79/34
f 47/75/35 45/77/35 41/80/35
f 44/82/36 42/84/36 46/78/36
