# Blender v3.1.2 OBJ File: ''
# www.blender.org
mtllib woll2.mtl
o 立方体
v -6.610043 10.881884 -0.021848
v -5.944457 -0.202703 -0.021850
v -6.610043 -0.202703 -0.021850
v -5.944457 10.881884 -0.021848
v -5.944455 -0.202707 23.354931
v -5.944455 10.881880 23.354933
v -6.610042 -0.202707 23.354931
v -6.610042 10.881880 23.354933
vt 0.625000 0.000000
vt 0.375000 0.250000
vt 0.375000 0.000000
vt 0.625000 0.250000
vt 0.375000 0.500000
vt 0.625000 0.500000
vt 0.375000 0.750000
vt 0.625000 0.750000
vt 0.375000 1.000000
vt 0.125000 0.750000
vt 0.125000 0.500000
vt 0.875000 0.500000
vt 0.625000 1.000000
vt 0.875000 0.750000
vn 0.0000 0.0000 -1.0000
vn 1.0000 0.0000 -0.0000
vn 0.0000 -0.0000 1.0000
vn -1.0000 0.0000 0.0000
vn 0.0000 -1.0000 -0.0000
vn 0.0000 1.0000 0.0000
usemtl None
s 1
f 1/1/1 2/2/1 3/3/1
f 4/4/2 5/5/2 2/2/2
f 6/6/3 7/7/3 5/5/3
f 8/8/4 3/9/4 7/7/4
f 5/5/5 3/10/5 2/11/5
f 4/12/6 8/8/6 6/6/6
f 1/1/1 4/4/1 2/2/1
f 4/4/2 6/6/2 5/5/2
f 6/6/3 8/8/3 7/7/3
f 8/8/4 1/13/4 3/9/4
f 5/5/5 7/7/5 3/10/5
f 4/12/6 1/14/6 8/8/6
