# Blender v3.1.2 OBJ File: ''
# www.blender.org
mtllib guidbullet.mtl
o Circle
v 0.006579 -0.043468 0.014609
v 0.162596 0.019252 -0.082474
v 0.318613 0.081972 0.014609
v 0.318613 0.081972 0.015477
v 0.162596 0.019252 0.112993
v 0.006579 -0.043468 0.015477
v -0.510432 2.144236 0.014610
v -0.666449 2.081516 -0.082473
v -0.927626 2.731198 0.013865
v -0.925626 2.732001 0.015109
v -0.510432 2.144236 0.015478
v -0.666449 2.081516 0.112994
v -0.822466 2.018796 0.014610
v -0.822466 2.018796 0.015478
v -0.929625 2.730394 0.015109
v -0.929625 2.730394 0.015120
v -0.927626 2.731198 0.016370
v -0.925626 2.732001 0.015120
vn 0.3730 -0.9278 0.0000
vn 0.4165 0.2950 -0.8599
vn 0.4165 0.2949 -0.8600
vn 0.4655 0.1871 0.8651
vn 0.9278 0.3730 0.0000
vn -0.4639 -0.1865 -0.8660
vn 0.4639 0.1865 -0.8660
vn -0.9278 -0.3730 0.0000
vn -0.4655 -0.1871 0.8651
vn -0.3721 0.9282 0.0000
vn -0.3712 0.9286 0.0000
vn -0.3730 0.9278 0.0000
vn -0.9889 -0.1489 0.0000
vn -0.9888 -0.1489 0.0000
vn -0.5064 -0.0758 0.8590
vn -0.5065 -0.0759 0.8589
vn 0.4180 0.2958 0.8590
vn 0.4180 0.2958 0.8589
vn 0.8168 0.5770 0.0000
vn 0.8168 0.5769 0.0000
vn -0.5048 -0.0754 -0.8599
vn -0.5047 -0.0754 -0.8600
vn 0.4164 0.2949 -0.8600
vn -0.3750 0.9270 0.0000
vn -0.3740 0.9274 0.0000
usemtl None
s 1
f 5//1 6//1 2//1
f 8//2 10//3 7//2
f 4//4 12//4 5//4
f 3//5 11//5 4//5
f 1//6 8//6 2//6
f 2//7 7//7 3//7
f 6//8 13//8 1//8
f 5//9 14//9 6//9
f 18//10 10//11 9//12
f 14//13 15//14 13//13
f 12//15 16//16 14//15
f 12//17 18//18 17//18
f 11//19 10//20 18//20
f 8//21 15//22 9//22
f 6//1 1//1 2//1
f 2//1 3//1 4//1
f 4//1 5//1 2//1
f 8//2 9//23 10//3
f 4//4 11//4 12//4
f 3//5 7//5 11//5
f 1//6 13//6 8//6
f 2//7 8//7 7//7
f 6//8 14//8 13//8
f 5//9 12//9 14//9
f 9//12 15//24 16//25
f 16//25 17//12 9//12
f 17//12 18//10 9//12
f 14//13 16//14 15//14
f 12//15 17//16 16//16
f 12//17 11//17 18//18
f 11//19 7//19 10//20
f 8//21 13//21 15//22
o Circle.001
v 0.006579 -0.043468 -0.299894
v 0.162596 0.019252 -0.396977
v 0.318613 0.081972 -0.299894
v 0.318613 0.081972 -0.299026
v 0.162596 0.019252 -0.201510
v 0.006579 -0.043468 -0.299026
v -0.510432 2.144236 -0.299893
v -0.666449 2.081516 -0.396977
v -0.927626 2.731198 -0.300638
v -0.925626 2.732001 -0.299394
v -0.510432 2.144236 -0.299026
v -0.666449 2.081516 -0.201509
v -0.822466 2.018796 -0.299893
v -0.822466 2.018796 -0.299026
v -0.929625 2.730394 -0.299394
v -0.929625 2.730394 -0.299383
v -0.927626 2.731198 -0.298133
v -0.925626 2.732001 -0.299383
vn 0.3730 -0.9278 0.0000
vn 0.4165 0.2950 -0.8599
vn 0.4165 0.2949 -0.8600
vn 0.4655 0.1871 0.8651
vn 0.9278 0.3730 0.0000
vn -0.4639 -0.1865 -0.8660
vn 0.4639 0.1865 -0.8660
vn -0.9278 -0.3730 0.0000
vn -0.4655 -0.1871 0.8651
vn -0.3744 0.9273 0.0000
vn -0.3758 0.9267 0.0000
vn -0.3730 0.9278 0.0000
vn -0.9889 -0.1489 0.0000
vn -0.9889 -0.1487 0.0000
vn -0.5064 -0.0758 0.8590
vn -0.5065 -0.0759 0.8589
vn 0.4180 0.2958 0.8590
vn 0.4180 0.2958 0.8589
vn 0.8168 0.5770 0.0000
vn 0.8182 0.5750 0.0000
vn -0.5048 -0.0754 -0.8599
vn -0.5048 -0.0754 -0.8600
vn -0.3754 0.9269 0.0000
vn -0.3742 0.9274 0.0000
usemtl None.001
s 1
f 23//26 24//26 20//26
f 26//27 28//28 25//27
f 22//29 30//29 23//29
f 21//30 29//30 22//30
f 19//31 26//31 20//31
f 20//32 25//32 21//32
f 24//33 31//33 19//33
f 23//34 32//34 24//34
f 36//35 28//36 27//37
f 32//38 33//39 31//38
f 30//40 34//41 32//40
f 30//42 36//43 35//43
f 29//44 28//45 36//45
f 26//46 33//47 27//47
f 24//26 19//26 20//26
f 20//26 21//26 22//26
f 22//26 23//26 20//26
f 26//27 27//28 28//28
f 22//29 29//29 30//29
f 21//30 25//30 29//30
f 19//31 31//31 26//31
f 20//32 26//32 25//32
f 24//33 32//33 31//33
f 23//34 30//34 32//34
f 27//37 33//48 34//49
f 34//49 35//37 27//37
f 35//37 36//35 27//37
f 32//38 34//39 33//39
f 30//40 35//41 34//41
f 30//42 29//42 36//43
f 29//44 25//44 28//45
f 26//46 31//46 33//47
o Circle.002
v 0.006579 -0.043468 0.391435
v 0.162596 0.019252 0.294352
v 0.318613 0.081972 0.391435
v 0.318613 0.081972 0.392303
v 0.162596 0.019252 0.489819
v 0.006579 -0.043468 0.392303
v -0.510432 2.144236 0.391435
v -0.666449 2.081516 0.294352
v -0.927626 2.731198 0.390690
v -0.925626 2.732001 0.391934
v -0.510432 2.144236 0.392303
v -0.666449 2.081516 0.489819
v -0.822466 2.018796 0.391435
v -0.822466 2.018796 0.392303
v -0.929625 2.730394 0.391934
v -0.929625 2.730394 0.391945
v -0.927626 2.731198 0.393195
v -0.925626 2.732001 0.391945
vn 0.3730 -0.9278 0.0000
vn 0.4165 0.2950 -0.8599
vn 0.4165 0.2949 -0.8600
vn 0.4655 0.1871 0.8651
vn 0.9278 0.3730 0.0000
vn -0.4639 -0.1865 -0.8660
vn 0.4639 0.1865 -0.8660
vn -0.9278 -0.3730 0.0000
vn -0.4655 -0.1871 0.8651
vn -0.3728 0.9279 0.0000
vn -0.3727 0.9280 0.0000
vn -0.3730 0.9278 0.0000
vn -0.9889 -0.1489 0.0000
vn -0.9888 -0.1492 0.0000
vn -0.5064 -0.0758 0.8590
vn -0.5065 -0.0759 0.8589
vn 0.4180 0.2958 0.8590
vn 0.4180 0.2958 0.8589
vn 0.8168 0.5769 0.0000
vn 0.8157 0.5785 0.0000
vn -0.5048 -0.0754 -0.8599
vn -0.5047 -0.0754 -0.8600
vn 0.4164 0.2949 -0.8600
vn -0.3722 0.9281 0.0000
vn -0.3726 0.9280 0.0000
usemtl None.002
s 1
f 41//50 42//50 38//50
f 44//51 46//52 43//51
f 40//53 48//53 41//53
f 39//54 47//54 40//54
f 37//55 44//55 38//55
f 38//56 43//56 39//56
f 42//57 49//57 37//57
f 41//58 50//58 42//58
f 54//59 46//60 45//61
f 50//62 51//63 49//62
f 48//64 52//65 50//64
f 48//66 54//67 53//67
f 47//68 46//69 54//69
f 44//70 51//71 45//71
f 42//50 37//50 38//50
f 38//50 39//50 40//50
f 40//50 41//50 38//50
f 44//51 45//72 46//52
f 40//53 47//53 48//53
f 39//54 43//54 47//54
f 37//55 49//55 44//55
f 38//56 44//56 43//56
f 42//57 50//57 49//57
f 41//58 48//58 50//58
f 45//61 51//73 52//74
f 52//74 53//61 45//61
f 53//61 54//59 45//61
f 50//62 52//63 51//63
f 48//64 53//65 52//65
f 48//66 47//66 54//67
f 47//68 43//68 46//69
f 44//70 49//70 51//71
